<mxfile host="app.diagrams.net" modified="2021-08-06T02:28:55.771Z" agent="5.0 (X11; Linux x86_64) AppleWebKit/537.36 (KHTML, like Gecko) Chrome/92.0.4515.131 Safari/537.36" etag="KaVO8w-EfRe6u1LDRh6D" version="14.9.4" type="github">
  <diagram id="ft9cVld-uz8MgYYLIyxT" name="Page-1">
    <mxGraphModel dx="2200" dy="745" grid="1" gridSize="10" guides="1" tooltips="1" connect="1" arrows="1" fold="1" page="1" pageScale="1" pageWidth="850" pageHeight="1100" math="0" shadow="0">
      <root>
        <mxCell id="0" />
        <mxCell id="1" parent="0" />
        <mxCell id="g-f1VxlYbPzsrZnkQhgG-1" value="Recording Server" style="rounded=0;whiteSpace=wrap;html=1;" parent="1" vertex="1">
          <mxGeometry x="-10" y="210" width="120" height="60" as="geometry" />
        </mxCell>
        <mxCell id="g-f1VxlYbPzsrZnkQhgG-17" value="&lt;span&gt;Proxy&lt;/span&gt;" style="rounded=0;whiteSpace=wrap;html=1;" parent="1" vertex="1">
          <mxGeometry x="510" y="210" width="120" height="60" as="geometry" />
        </mxCell>
        <mxCell id="g-f1VxlYbPzsrZnkQhgG-19" value="Client" style="rounded=0;whiteSpace=wrap;html=1;" parent="1" vertex="1">
          <mxGeometry x="800" y="210" width="120" height="60" as="geometry" />
        </mxCell>
        <mxCell id="DYEOjVPbICcdRIkoRLpz-20" style="edgeStyle=orthogonalEdgeStyle;rounded=0;orthogonalLoop=1;jettySize=auto;html=1;exitX=1;exitY=0.75;exitDx=0;exitDy=0;entryX=0;entryY=0.75;entryDx=0;entryDy=0;" parent="1" source="g-f1VxlYbPzsrZnkQhgG-42" target="g-f1VxlYbPzsrZnkQhgG-49" edge="1">
          <mxGeometry relative="1" as="geometry" />
        </mxCell>
        <mxCell id="DYEOjVPbICcdRIkoRLpz-21" style="edgeStyle=orthogonalEdgeStyle;rounded=0;orthogonalLoop=1;jettySize=auto;html=1;exitX=0;exitY=0.75;exitDx=0;exitDy=0;entryX=1;entryY=0.75;entryDx=0;entryDy=0;" parent="1" source="g-f1VxlYbPzsrZnkQhgG-42" target="g-f1VxlYbPzsrZnkQhgG-43" edge="1">
          <mxGeometry relative="1" as="geometry" />
        </mxCell>
        <mxCell id="g-f1VxlYbPzsrZnkQhgG-42" value="Proxy" style="rounded=0;whiteSpace=wrap;html=1;" parent="1" vertex="1">
          <mxGeometry x="285" y="720" width="120" height="60" as="geometry" />
        </mxCell>
        <mxCell id="g-f1VxlYbPzsrZnkQhgG-44" style="edgeStyle=orthogonalEdgeStyle;rounded=0;orthogonalLoop=1;jettySize=auto;html=1;exitX=1;exitY=0.5;exitDx=0;exitDy=0;entryX=0;entryY=0.5;entryDx=0;entryDy=0;" parent="1" source="g-f1VxlYbPzsrZnkQhgG-43" target="g-f1VxlYbPzsrZnkQhgG-42" edge="1">
          <mxGeometry relative="1" as="geometry" />
        </mxCell>
        <mxCell id="g-f1VxlYbPzsrZnkQhgG-71" style="edgeStyle=orthogonalEdgeStyle;rounded=0;orthogonalLoop=1;jettySize=auto;html=1;exitX=0.5;exitY=0;exitDx=0;exitDy=0;entryX=0.5;entryY=0;entryDx=0;entryDy=0;" parent="1" source="g-f1VxlYbPzsrZnkQhgG-43" target="g-f1VxlYbPzsrZnkQhgG-49" edge="1">
          <mxGeometry relative="1" as="geometry">
            <Array as="points">
              <mxPoint x="130" y="700" />
              <mxPoint x="553" y="700" />
            </Array>
          </mxGeometry>
        </mxCell>
        <mxCell id="g-f1VxlYbPzsrZnkQhgG-43" value="Media Server" style="rounded=0;whiteSpace=wrap;html=1;" parent="1" vertex="1">
          <mxGeometry x="70" y="720" width="120" height="60" as="geometry" />
        </mxCell>
        <mxCell id="g-f1VxlYbPzsrZnkQhgG-52" style="edgeStyle=orthogonalEdgeStyle;rounded=0;orthogonalLoop=1;jettySize=auto;html=1;exitX=0.5;exitY=0;exitDx=0;exitDy=0;entryX=0.5;entryY=1;entryDx=0;entryDy=0;" parent="1" source="g-f1VxlYbPzsrZnkQhgG-45" target="g-f1VxlYbPzsrZnkQhgG-42" edge="1">
          <mxGeometry relative="1" as="geometry" />
        </mxCell>
        <mxCell id="g-f1VxlYbPzsrZnkQhgG-45" value="&lt;span&gt;Redis&lt;/span&gt;" style="rounded=0;whiteSpace=wrap;html=1;" parent="1" vertex="1">
          <mxGeometry x="285" y="830" width="120" height="60" as="geometry" />
        </mxCell>
        <mxCell id="g-f1VxlYbPzsrZnkQhgG-55" style="edgeStyle=orthogonalEdgeStyle;rounded=0;orthogonalLoop=1;jettySize=auto;html=1;exitX=0;exitY=0.5;exitDx=0;exitDy=0;entryX=1;entryY=0.5;entryDx=0;entryDy=0;" parent="1" source="g-f1VxlYbPzsrZnkQhgG-49" target="g-f1VxlYbPzsrZnkQhgG-42" edge="1">
          <mxGeometry relative="1" as="geometry" />
        </mxCell>
        <mxCell id="g-f1VxlYbPzsrZnkQhgG-49" value="Client" style="rounded=0;whiteSpace=wrap;html=1;" parent="1" vertex="1">
          <mxGeometry x="493" y="720" width="120" height="60" as="geometry" />
        </mxCell>
        <mxCell id="g-f1VxlYbPzsrZnkQhgG-54" value="Get Ip server of channel Id (2)" style="text;html=1;align=center;verticalAlign=middle;resizable=0;points=[];autosize=1;strokeColor=none;" parent="1" vertex="1">
          <mxGeometry x="350" y="800" width="170" height="20" as="geometry" />
        </mxCell>
        <mxCell id="g-f1VxlYbPzsrZnkQhgG-57" value="Request (1)&amp;nbsp;" style="text;html=1;align=center;verticalAlign=middle;resizable=0;points=[];autosize=1;strokeColor=none;" parent="1" vertex="1">
          <mxGeometry x="413" y="720" width="80" height="20" as="geometry" />
        </mxCell>
        <mxCell id="g-f1VxlYbPzsrZnkQhgG-62" value="WS/HLS" style="text;html=1;align=center;verticalAlign=middle;resizable=0;points=[];autosize=1;strokeColor=none;" parent="1" vertex="1">
          <mxGeometry x="320" y="670" width="60" height="20" as="geometry" />
        </mxCell>
        <mxCell id="g-f1VxlYbPzsrZnkQhgG-63" value="(4)" style="text;html=1;align=center;verticalAlign=middle;resizable=0;points=[];autosize=1;strokeColor=none;" parent="1" vertex="1">
          <mxGeometry x="220" y="720" width="30" height="20" as="geometry" />
        </mxCell>
        <mxCell id="DYEOjVPbICcdRIkoRLpz-6" value="" style="endArrow=classic;startArrow=classic;html=1;entryX=0;entryY=0.5;entryDx=0;entryDy=0;exitX=1;exitY=0.5;exitDx=0;exitDy=0;" parent="1" source="g-f1VxlYbPzsrZnkQhgG-17" target="g-f1VxlYbPzsrZnkQhgG-19" edge="1">
          <mxGeometry width="50" height="50" relative="1" as="geometry">
            <mxPoint x="470" y="300" as="sourcePoint" />
            <mxPoint x="520" y="250" as="targetPoint" />
          </mxGeometry>
        </mxCell>
        <mxCell id="DYEOjVPbICcdRIkoRLpz-12" value="RTP multicast" style="text;html=1;align=center;verticalAlign=middle;resizable=0;points=[];autosize=1;strokeColor=none;" parent="1" vertex="1">
          <mxGeometry x="140" y="220" width="90" height="20" as="geometry" />
        </mxCell>
        <mxCell id="DYEOjVPbICcdRIkoRLpz-19" style="edgeStyle=orthogonalEdgeStyle;rounded=0;orthogonalLoop=1;jettySize=auto;html=1;entryX=0.5;entryY=0;entryDx=0;entryDy=0;" parent="1" source="DYEOjVPbICcdRIkoRLpz-17" target="DYEOjVPbICcdRIkoRLpz-18" edge="1">
          <mxGeometry relative="1" as="geometry" />
        </mxCell>
        <mxCell id="DYEOjVPbICcdRIkoRLpz-17" value="Start" style="ellipse;whiteSpace=wrap;html=1;" parent="1" vertex="1">
          <mxGeometry x="340" y="950" width="120" height="80" as="geometry" />
        </mxCell>
        <mxCell id="DYEOjVPbICcdRIkoRLpz-25" style="edgeStyle=orthogonalEdgeStyle;rounded=0;orthogonalLoop=1;jettySize=auto;html=1;exitX=0.5;exitY=1;exitDx=0;exitDy=0;" parent="1" source="DYEOjVPbICcdRIkoRLpz-18" edge="1">
          <mxGeometry relative="1" as="geometry">
            <mxPoint x="400" y="1170" as="targetPoint" />
          </mxGeometry>
        </mxCell>
        <mxCell id="DYEOjVPbICcdRIkoRLpz-18" value="Client gửi request mở luồng kết nối tới Media Server Manager" style="rounded=0;whiteSpace=wrap;html=1;" parent="1" vertex="1">
          <mxGeometry x="340" y="1070" width="120" height="60" as="geometry" />
        </mxCell>
        <mxCell id="DYEOjVPbICcdRIkoRLpz-22" value="3" style="text;html=1;align=center;verticalAlign=middle;resizable=0;points=[];autosize=1;strokeColor=none;" parent="1" vertex="1">
          <mxGeometry x="230" y="770" width="20" height="20" as="geometry" />
        </mxCell>
        <mxCell id="DYEOjVPbICcdRIkoRLpz-23" value="(5)" style="text;html=1;align=center;verticalAlign=middle;resizable=0;points=[];autosize=1;strokeColor=none;" parent="1" vertex="1">
          <mxGeometry x="438" y="770" width="30" height="20" as="geometry" />
        </mxCell>
        <mxCell id="DYEOjVPbICcdRIkoRLpz-24" value="(6)" style="text;html=1;align=center;verticalAlign=middle;resizable=0;points=[];autosize=1;strokeColor=none;" parent="1" vertex="1">
          <mxGeometry x="375" y="670" width="30" height="20" as="geometry" />
        </mxCell>
        <mxCell id="DYEOjVPbICcdRIkoRLpz-30" style="edgeStyle=orthogonalEdgeStyle;rounded=0;orthogonalLoop=1;jettySize=auto;html=1;exitX=0;exitY=0.5;exitDx=0;exitDy=0;entryX=0.5;entryY=0;entryDx=0;entryDy=0;" parent="1" source="DYEOjVPbICcdRIkoRLpz-26" target="DYEOjVPbICcdRIkoRLpz-29" edge="1">
          <mxGeometry relative="1" as="geometry" />
        </mxCell>
        <mxCell id="DYEOjVPbICcdRIkoRLpz-39" style="edgeStyle=orthogonalEdgeStyle;rounded=0;orthogonalLoop=1;jettySize=auto;html=1;exitX=1;exitY=0.5;exitDx=0;exitDy=0;" parent="1" source="DYEOjVPbICcdRIkoRLpz-26" target="DYEOjVPbICcdRIkoRLpz-34" edge="1">
          <mxGeometry relative="1" as="geometry" />
        </mxCell>
        <mxCell id="DYEOjVPbICcdRIkoRLpz-26" value="MSM check&amp;nbsp; xem loại kết nối&lt;br&gt;&amp;nbsp;và kết nối đã được mở hay chưa" style="rhombus;whiteSpace=wrap;html=1;" parent="1" vertex="1">
          <mxGeometry x="290" y="1170" width="220" height="120" as="geometry" />
        </mxCell>
        <mxCell id="DYEOjVPbICcdRIkoRLpz-35" style="edgeStyle=orthogonalEdgeStyle;rounded=0;orthogonalLoop=1;jettySize=auto;html=1;exitX=0;exitY=0.5;exitDx=0;exitDy=0;" parent="1" source="DYEOjVPbICcdRIkoRLpz-29" edge="1">
          <mxGeometry relative="1" as="geometry">
            <mxPoint x="10" y="1438" as="targetPoint" />
          </mxGeometry>
        </mxCell>
        <mxCell id="DYEOjVPbICcdRIkoRLpz-36" style="edgeStyle=orthogonalEdgeStyle;rounded=0;orthogonalLoop=1;jettySize=auto;html=1;exitX=1;exitY=0.5;exitDx=0;exitDy=0;" parent="1" source="DYEOjVPbICcdRIkoRLpz-29" target="DYEOjVPbICcdRIkoRLpz-33" edge="1">
          <mxGeometry relative="1" as="geometry" />
        </mxCell>
        <mxCell id="DYEOjVPbICcdRIkoRLpz-29" value="&lt;br&gt;&lt;br&gt;MSM check&amp;nbsp; xem Media Server&lt;br&gt;(MS) đang mở kết nối đã phục vụ&lt;br&gt;&amp;nbsp;tối đa số client&lt;br&gt;&amp;nbsp;cho phép chưa&amp;nbsp;" style="rhombus;whiteSpace=wrap;html=1;" parent="1" vertex="1">
          <mxGeometry x="50" y="1260" width="220" height="120" as="geometry" />
        </mxCell>
        <mxCell id="DYEOjVPbICcdRIkoRLpz-31" value="Y" style="text;html=1;align=center;verticalAlign=middle;resizable=0;points=[];autosize=1;strokeColor=none;" parent="1" vertex="1">
          <mxGeometry x="210" y="1210" width="20" height="20" as="geometry" />
        </mxCell>
        <mxCell id="DYEOjVPbICcdRIkoRLpz-58" style="edgeStyle=orthogonalEdgeStyle;rounded=0;orthogonalLoop=1;jettySize=auto;html=1;exitX=0.5;exitY=1;exitDx=0;exitDy=0;entryX=0;entryY=0.5;entryDx=0;entryDy=0;" parent="1" source="DYEOjVPbICcdRIkoRLpz-32" target="DYEOjVPbICcdRIkoRLpz-57" edge="1">
          <mxGeometry relative="1" as="geometry" />
        </mxCell>
        <mxCell id="DYEOjVPbICcdRIkoRLpz-32" value="Proxy gửi cho client ip của MS khác&amp;nbsp; đang phục vụ ít client nhất" style="rounded=0;whiteSpace=wrap;html=1;" parent="1" vertex="1">
          <mxGeometry x="-50" y="1440" width="120" height="60" as="geometry" />
        </mxCell>
        <mxCell id="DYEOjVPbICcdRIkoRLpz-59" style="edgeStyle=orthogonalEdgeStyle;rounded=0;orthogonalLoop=1;jettySize=auto;html=1;exitX=0.5;exitY=1;exitDx=0;exitDy=0;entryX=1;entryY=0.5;entryDx=0;entryDy=0;" parent="1" source="DYEOjVPbICcdRIkoRLpz-33" target="DYEOjVPbICcdRIkoRLpz-57" edge="1">
          <mxGeometry relative="1" as="geometry" />
        </mxCell>
        <mxCell id="DYEOjVPbICcdRIkoRLpz-33" value="&lt;span&gt;Proxy gửi cho client ip của MS đang mở luồng kết nối đó&lt;/span&gt;" style="rounded=0;whiteSpace=wrap;html=1;" parent="1" vertex="1">
          <mxGeometry x="290" y="1440" width="120" height="60" as="geometry" />
        </mxCell>
        <mxCell id="DYEOjVPbICcdRIkoRLpz-48" style="edgeStyle=orthogonalEdgeStyle;rounded=0;orthogonalLoop=1;jettySize=auto;html=1;exitX=0.5;exitY=1;exitDx=0;exitDy=0;entryX=0.5;entryY=0;entryDx=0;entryDy=0;" parent="1" source="DYEOjVPbICcdRIkoRLpz-34" target="DYEOjVPbICcdRIkoRLpz-50" edge="1">
          <mxGeometry relative="1" as="geometry">
            <mxPoint x="620" y="1410" as="targetPoint" />
          </mxGeometry>
        </mxCell>
        <mxCell id="DYEOjVPbICcdRIkoRLpz-34" value="Proxy gửi yêu cầu kết nối tới luồng cam cho MS đang phục vụ ít client nhất&amp;nbsp;" style="rounded=0;whiteSpace=wrap;html=1;" parent="1" vertex="1">
          <mxGeometry x="560" y="1320" width="120" height="60" as="geometry" />
        </mxCell>
        <mxCell id="DYEOjVPbICcdRIkoRLpz-37" value="Y" style="text;html=1;align=center;verticalAlign=middle;resizable=0;points=[];autosize=1;strokeColor=none;" parent="1" vertex="1">
          <mxGeometry y="1370" width="20" height="20" as="geometry" />
        </mxCell>
        <mxCell id="DYEOjVPbICcdRIkoRLpz-38" value="N" style="text;html=1;align=center;verticalAlign=middle;resizable=0;points=[];autosize=1;strokeColor=none;" parent="1" vertex="1">
          <mxGeometry x="330" y="1380" width="20" height="20" as="geometry" />
        </mxCell>
        <mxCell id="DYEOjVPbICcdRIkoRLpz-40" value="N" style="text;html=1;align=center;verticalAlign=middle;resizable=0;points=[];autosize=1;strokeColor=none;" parent="1" vertex="1">
          <mxGeometry x="620" y="1250" width="20" height="20" as="geometry" />
        </mxCell>
        <mxCell id="DYEOjVPbICcdRIkoRLpz-43" style="edgeStyle=orthogonalEdgeStyle;rounded=0;orthogonalLoop=1;jettySize=auto;html=1;exitX=0.5;exitY=1;exitDx=0;exitDy=0;entryX=0.5;entryY=0;entryDx=0;entryDy=0;" parent="1" source="DYEOjVPbICcdRIkoRLpz-41" target="DYEOjVPbICcdRIkoRLpz-42" edge="1">
          <mxGeometry relative="1" as="geometry" />
        </mxCell>
        <mxCell id="DYEOjVPbICcdRIkoRLpz-41" value="Start" style="ellipse;whiteSpace=wrap;html=1;" parent="1" vertex="1">
          <mxGeometry x="720" y="960" width="120" height="80" as="geometry" />
        </mxCell>
        <mxCell id="DYEOjVPbICcdRIkoRLpz-45" style="edgeStyle=orthogonalEdgeStyle;rounded=0;orthogonalLoop=1;jettySize=auto;html=1;exitX=0.5;exitY=1;exitDx=0;exitDy=0;entryX=0.5;entryY=0;entryDx=0;entryDy=0;" parent="1" source="DYEOjVPbICcdRIkoRLpz-42" target="DYEOjVPbICcdRIkoRLpz-44" edge="1">
          <mxGeometry relative="1" as="geometry" />
        </mxCell>
        <mxCell id="DYEOjVPbICcdRIkoRLpz-42" value="Các MS cập nhật luồng UDP, số client đang phục vụ cho Proxy" style="rounded=0;whiteSpace=wrap;html=1;" parent="1" vertex="1">
          <mxGeometry x="720" y="1070" width="120" height="60" as="geometry" />
        </mxCell>
        <mxCell id="DYEOjVPbICcdRIkoRLpz-47" style="edgeStyle=orthogonalEdgeStyle;rounded=0;orthogonalLoop=1;jettySize=auto;html=1;exitX=0.5;exitY=1;exitDx=0;exitDy=0;entryX=0.5;entryY=0;entryDx=0;entryDy=0;" parent="1" source="DYEOjVPbICcdRIkoRLpz-44" target="DYEOjVPbICcdRIkoRLpz-46" edge="1">
          <mxGeometry relative="1" as="geometry" />
        </mxCell>
        <mxCell id="DYEOjVPbICcdRIkoRLpz-44" value="Media Server Manager&amp;nbsp;lưu các thông tin trên vào cache" style="rounded=0;whiteSpace=wrap;html=1;" parent="1" vertex="1">
          <mxGeometry x="720" y="1180" width="120" height="60" as="geometry" />
        </mxCell>
        <mxCell id="DYEOjVPbICcdRIkoRLpz-46" value="End" style="ellipse;whiteSpace=wrap;html=1;" parent="1" vertex="1">
          <mxGeometry x="720" y="1300" width="120" height="80" as="geometry" />
        </mxCell>
        <mxCell id="DYEOjVPbICcdRIkoRLpz-52" style="edgeStyle=orthogonalEdgeStyle;rounded=0;orthogonalLoop=1;jettySize=auto;html=1;exitX=0;exitY=0.5;exitDx=0;exitDy=0;" parent="1" source="DYEOjVPbICcdRIkoRLpz-50" edge="1">
          <mxGeometry relative="1" as="geometry">
            <mxPoint x="410" y="1465" as="targetPoint" />
          </mxGeometry>
        </mxCell>
        <mxCell id="DYEOjVPbICcdRIkoRLpz-55" style="edgeStyle=orthogonalEdgeStyle;rounded=0;orthogonalLoop=1;jettySize=auto;html=1;exitX=0.5;exitY=1;exitDx=0;exitDy=0;" parent="1" source="DYEOjVPbICcdRIkoRLpz-50" edge="1">
          <mxGeometry relative="1" as="geometry">
            <mxPoint x="620" y="1560" as="targetPoint" />
          </mxGeometry>
        </mxCell>
        <mxCell id="DYEOjVPbICcdRIkoRLpz-50" value="Kết nối thành công?" style="rhombus;whiteSpace=wrap;html=1;" parent="1" vertex="1">
          <mxGeometry x="525" y="1420" width="190" height="90" as="geometry" />
        </mxCell>
        <mxCell id="DYEOjVPbICcdRIkoRLpz-53" value="Y" style="text;html=1;align=center;verticalAlign=middle;resizable=0;points=[];autosize=1;strokeColor=none;" parent="1" vertex="1">
          <mxGeometry x="460" y="1438" width="20" height="20" as="geometry" />
        </mxCell>
        <mxCell id="DYEOjVPbICcdRIkoRLpz-56" value="Thông báo lỗi cho Client" style="rounded=0;whiteSpace=wrap;html=1;" parent="1" vertex="1">
          <mxGeometry x="560" y="1560" width="120" height="60" as="geometry" />
        </mxCell>
        <mxCell id="DYEOjVPbICcdRIkoRLpz-57" value="Client request trực tiếp đến MS nhận được từ phía Proxy" style="rounded=0;whiteSpace=wrap;html=1;" parent="1" vertex="1">
          <mxGeometry x="105" y="1560" width="120" height="60" as="geometry" />
        </mxCell>
        <mxCell id="DYEOjVPbICcdRIkoRLpz-65" value="Recording Server" style="rounded=0;whiteSpace=wrap;html=1;" parent="1" vertex="1">
          <mxGeometry x="130" y="1870" width="120" height="60" as="geometry" />
        </mxCell>
        <mxCell id="DYEOjVPbICcdRIkoRLpz-69" value="Media Server Manager" style="rounded=0;whiteSpace=wrap;html=1;" parent="1" vertex="1">
          <mxGeometry x="600" y="1870" width="120" height="60" as="geometry" />
        </mxCell>
        <mxCell id="DYEOjVPbICcdRIkoRLpz-79" value="Client" style="rounded=0;whiteSpace=wrap;html=1;" parent="1" vertex="1">
          <mxGeometry x="750" y="1870" width="120" height="60" as="geometry" />
        </mxCell>
        <mxCell id="DYEOjVPbICcdRIkoRLpz-85" value="" style="endArrow=classic;startArrow=classic;html=1;entryX=0.5;entryY=0;entryDx=0;entryDy=0;" parent="1" target="DYEOjVPbICcdRIkoRLpz-79" edge="1">
          <mxGeometry width="50" height="50" relative="1" as="geometry">
            <mxPoint x="429" y="1870" as="sourcePoint" />
            <mxPoint x="530" y="1710" as="targetPoint" />
            <Array as="points">
              <mxPoint x="429" y="1760" />
              <mxPoint x="810" y="1760" />
            </Array>
          </mxGeometry>
        </mxCell>
        <mxCell id="DYEOjVPbICcdRIkoRLpz-86" value="" style="endArrow=classic;startArrow=classic;html=1;exitX=0.467;exitY=1;exitDx=0;exitDy=0;entryX=0.5;entryY=1;entryDx=0;entryDy=0;exitPerimeter=0;" parent="1" source="ZJ-eOTm03aLBQGaU3E5e-5" target="DYEOjVPbICcdRIkoRLpz-79" edge="1">
          <mxGeometry width="50" height="50" relative="1" as="geometry">
            <mxPoint x="429" y="1990" as="sourcePoint" />
            <mxPoint x="520" y="1800" as="targetPoint" />
            <Array as="points">
              <mxPoint x="429" y="2030" />
              <mxPoint x="810" y="2030" />
            </Array>
          </mxGeometry>
        </mxCell>
        <mxCell id="DYEOjVPbICcdRIkoRLpz-87" value="HLS" style="text;html=1;align=center;verticalAlign=middle;resizable=0;points=[];autosize=1;strokeColor=none;" parent="1" vertex="1">
          <mxGeometry x="580" y="1740" width="40" height="20" as="geometry" />
        </mxCell>
        <mxCell id="DYEOjVPbICcdRIkoRLpz-88" value="WS" style="text;html=1;align=center;verticalAlign=middle;resizable=0;points=[];autosize=1;strokeColor=none;" parent="1" vertex="1">
          <mxGeometry x="595" y="2010" width="30" height="20" as="geometry" />
        </mxCell>
        <mxCell id="DYEOjVPbICcdRIkoRLpz-89" value="RTP Multicast" style="text;html=1;align=center;verticalAlign=middle;resizable=0;points=[];autosize=1;strokeColor=none;" parent="1" vertex="1">
          <mxGeometry x="270" y="1870" width="90" height="20" as="geometry" />
        </mxCell>
        <mxCell id="fhVXXs7TsKeI-0864Cph-2" value="" style="endArrow=classic;startArrow=classic;html=1;entryX=0.5;entryY=1;entryDx=0;entryDy=0;exitX=0.5;exitY=0;exitDx=0;exitDy=0;" parent="1" target="g-f1VxlYbPzsrZnkQhgG-1" edge="1">
          <mxGeometry width="50" height="50" relative="1" as="geometry">
            <mxPoint x="50" y="360" as="sourcePoint" />
            <mxPoint x="550" y="330" as="targetPoint" />
          </mxGeometry>
        </mxCell>
        <mxCell id="fhVXXs7TsKeI-0864Cph-4" value="" style="endArrow=classic;startArrow=classic;html=1;exitX=0.5;exitY=0;exitDx=0;exitDy=0;entryX=0.5;entryY=0;entryDx=0;entryDy=0;" parent="1" source="ZJ-eOTm03aLBQGaU3E5e-9" target="g-f1VxlYbPzsrZnkQhgG-19" edge="1">
          <mxGeometry width="50" height="50" relative="1" as="geometry">
            <mxPoint x="310" y="40" as="sourcePoint" />
            <mxPoint x="550" y="240" as="targetPoint" />
            <Array as="points">
              <mxPoint x="310" y="120" />
              <mxPoint x="860" y="120" />
            </Array>
          </mxGeometry>
        </mxCell>
        <mxCell id="fhVXXs7TsKeI-0864Cph-5" value="" style="endArrow=classic;startArrow=classic;html=1;exitX=0.5;exitY=1;exitDx=0;exitDy=0;entryX=0.417;entryY=1;entryDx=0;entryDy=0;entryPerimeter=0;" parent="1" source="ZJ-eOTm03aLBQGaU3E5e-9" target="g-f1VxlYbPzsrZnkQhgG-19" edge="1">
          <mxGeometry width="50" height="50" relative="1" as="geometry">
            <mxPoint x="380" y="340" as="sourcePoint" />
            <mxPoint x="550" y="240" as="targetPoint" />
            <Array as="points">
              <mxPoint x="310" y="320" />
              <mxPoint x="850" y="320" />
            </Array>
          </mxGeometry>
        </mxCell>
        <mxCell id="ZJ-eOTm03aLBQGaU3E5e-5" value="Media Server" style="rounded=0;whiteSpace=wrap;html=1;" parent="1" vertex="1">
          <mxGeometry x="373" y="1870" width="120" height="60" as="geometry" />
        </mxCell>
        <mxCell id="ZJ-eOTm03aLBQGaU3E5e-6" value="" style="endArrow=classic;startArrow=classic;html=1;exitX=1;exitY=0.5;exitDx=0;exitDy=0;" parent="1" source="DYEOjVPbICcdRIkoRLpz-65" edge="1">
          <mxGeometry width="50" height="50" relative="1" as="geometry">
            <mxPoint x="280" y="1940" as="sourcePoint" />
            <mxPoint x="370" y="1900" as="targetPoint" />
          </mxGeometry>
        </mxCell>
        <mxCell id="ZJ-eOTm03aLBQGaU3E5e-7" value="" style="endArrow=classic;startArrow=classic;html=1;entryX=0;entryY=0.5;entryDx=0;entryDy=0;exitX=1;exitY=0.5;exitDx=0;exitDy=0;" parent="1" source="ZJ-eOTm03aLBQGaU3E5e-5" target="DYEOjVPbICcdRIkoRLpz-69" edge="1">
          <mxGeometry width="50" height="50" relative="1" as="geometry">
            <mxPoint x="510" y="1970" as="sourcePoint" />
            <mxPoint x="560" y="1920" as="targetPoint" />
          </mxGeometry>
        </mxCell>
        <mxCell id="ZJ-eOTm03aLBQGaU3E5e-8" value="" style="endArrow=classic;startArrow=classic;html=1;entryX=0;entryY=0.5;entryDx=0;entryDy=0;" parent="1" target="DYEOjVPbICcdRIkoRLpz-79" edge="1">
          <mxGeometry width="50" height="50" relative="1" as="geometry">
            <mxPoint x="720" y="1900" as="sourcePoint" />
            <mxPoint x="770" y="1890" as="targetPoint" />
          </mxGeometry>
        </mxCell>
        <mxCell id="ZJ-eOTm03aLBQGaU3E5e-9" value="Media Server" style="rounded=0;whiteSpace=wrap;html=1;" parent="1" vertex="1">
          <mxGeometry x="250" y="210" width="120" height="60" as="geometry" />
        </mxCell>
        <mxCell id="ZJ-eOTm03aLBQGaU3E5e-10" value="" style="endArrow=classic;startArrow=classic;html=1;entryX=0;entryY=0.5;entryDx=0;entryDy=0;" parent="1" target="ZJ-eOTm03aLBQGaU3E5e-9" edge="1">
          <mxGeometry width="50" height="50" relative="1" as="geometry">
            <mxPoint x="110" y="240" as="sourcePoint" />
            <mxPoint x="510" y="290" as="targetPoint" />
          </mxGeometry>
        </mxCell>
        <mxCell id="ZJ-eOTm03aLBQGaU3E5e-11" value="" style="endArrow=classic;startArrow=classic;html=1;entryX=0;entryY=0.5;entryDx=0;entryDy=0;" parent="1" source="ZJ-eOTm03aLBQGaU3E5e-9" target="g-f1VxlYbPzsrZnkQhgG-17" edge="1">
          <mxGeometry width="50" height="50" relative="1" as="geometry">
            <mxPoint x="370" y="290" as="sourcePoint" />
            <mxPoint x="440.71067811865476" y="240" as="targetPoint" />
          </mxGeometry>
        </mxCell>
        <mxCell id="ZJ-eOTm03aLBQGaU3E5e-12" value="Storage" style="strokeWidth=2;html=1;shape=mxgraph.flowchart.database;whiteSpace=wrap;" parent="1" vertex="1">
          <mxGeometry x="20" y="360" width="60" height="60" as="geometry" />
        </mxCell>
        <mxCell id="ZJ-eOTm03aLBQGaU3E5e-13" value="HLS" style="text;html=1;align=center;verticalAlign=middle;resizable=0;points=[];autosize=1;strokeColor=none;" parent="1" vertex="1">
          <mxGeometry x="550" y="100" width="40" height="20" as="geometry" />
        </mxCell>
        <mxCell id="ZJ-eOTm03aLBQGaU3E5e-15" value="WS" style="text;html=1;align=center;verticalAlign=middle;resizable=0;points=[];autosize=1;strokeColor=none;" parent="1" vertex="1">
          <mxGeometry x="555" y="320" width="30" height="20" as="geometry" />
        </mxCell>
        <mxCell id="ZJ-eOTm03aLBQGaU3E5e-29" value="Recording Server" style="rounded=0;whiteSpace=wrap;html=1;" parent="1" vertex="1">
          <mxGeometry x="140" y="2310" width="120" height="60" as="geometry" />
        </mxCell>
        <mxCell id="ZJ-eOTm03aLBQGaU3E5e-30" value="Proxy" style="rounded=0;whiteSpace=wrap;html=1;" parent="1" vertex="1">
          <mxGeometry x="770" y="2310" width="120" height="60" as="geometry" />
        </mxCell>
        <mxCell id="ZJ-eOTm03aLBQGaU3E5e-31" value="Client" style="rounded=0;whiteSpace=wrap;html=1;" parent="1" vertex="1">
          <mxGeometry x="920" y="2310" width="120" height="60" as="geometry" />
        </mxCell>
        <mxCell id="ZJ-eOTm03aLBQGaU3E5e-36" value="RTP Multicast" style="text;html=1;align=center;verticalAlign=middle;resizable=0;points=[];autosize=1;strokeColor=none;" parent="1" vertex="1">
          <mxGeometry x="265" y="2320" width="90" height="20" as="geometry" />
        </mxCell>
        <mxCell id="ZJ-eOTm03aLBQGaU3E5e-37" value="Media Server" style="rounded=0;whiteSpace=wrap;html=1;" parent="1" vertex="1">
          <mxGeometry x="400" y="2240" width="120" height="60" as="geometry" />
        </mxCell>
        <mxCell id="ZJ-eOTm03aLBQGaU3E5e-40" value="" style="endArrow=classic;startArrow=classic;html=1;entryX=0;entryY=0.5;entryDx=0;entryDy=0;" parent="1" target="ZJ-eOTm03aLBQGaU3E5e-31" edge="1">
          <mxGeometry width="50" height="50" relative="1" as="geometry">
            <mxPoint x="890" y="2340" as="sourcePoint" />
            <mxPoint x="940" y="2330" as="targetPoint" />
          </mxGeometry>
        </mxCell>
        <mxCell id="ZJ-eOTm03aLBQGaU3E5e-41" value="Media Server" style="rounded=0;whiteSpace=wrap;html=1;" parent="1" vertex="1">
          <mxGeometry x="400" y="2390" width="120" height="60" as="geometry" />
        </mxCell>
        <mxCell id="ZJ-eOTm03aLBQGaU3E5e-42" value="" style="endArrow=classic;startArrow=classic;html=1;entryX=0;entryY=0.5;entryDx=0;entryDy=0;exitX=0;exitY=0.5;exitDx=0;exitDy=0;" parent="1" source="ZJ-eOTm03aLBQGaU3E5e-41" target="ZJ-eOTm03aLBQGaU3E5e-37" edge="1">
          <mxGeometry width="50" height="50" relative="1" as="geometry">
            <mxPoint x="460" y="2420" as="sourcePoint" />
            <mxPoint x="510" y="2370" as="targetPoint" />
            <Array as="points">
              <mxPoint x="370" y="2380" />
              <mxPoint x="370" y="2340" />
              <mxPoint x="370" y="2300" />
            </Array>
          </mxGeometry>
        </mxCell>
        <mxCell id="ZJ-eOTm03aLBQGaU3E5e-45" value="Media Server" style="rounded=0;whiteSpace=wrap;html=1;" parent="1" vertex="1">
          <mxGeometry x="585" y="2190" width="120" height="60" as="geometry" />
        </mxCell>
        <mxCell id="ZJ-eOTm03aLBQGaU3E5e-46" value="Media Server" style="rounded=0;whiteSpace=wrap;html=1;" parent="1" vertex="1">
          <mxGeometry x="585" y="2280" width="120" height="60" as="geometry" />
        </mxCell>
        <mxCell id="ZJ-eOTm03aLBQGaU3E5e-47" value="Media Server" style="rounded=0;whiteSpace=wrap;html=1;" parent="1" vertex="1">
          <mxGeometry x="580" y="2370" width="120" height="60" as="geometry" />
        </mxCell>
        <mxCell id="ZJ-eOTm03aLBQGaU3E5e-48" value="Media Server" style="rounded=0;whiteSpace=wrap;html=1;" parent="1" vertex="1">
          <mxGeometry x="580" y="2460" width="120" height="60" as="geometry" />
        </mxCell>
        <mxCell id="ZJ-eOTm03aLBQGaU3E5e-50" value="" style="endArrow=classic;html=1;entryX=-0.011;entryY=1.05;entryDx=0;entryDy=0;entryPerimeter=0;" parent="1" target="ZJ-eOTm03aLBQGaU3E5e-36" edge="1">
          <mxGeometry width="50" height="50" relative="1" as="geometry">
            <mxPoint x="370" y="2340" as="sourcePoint" />
            <mxPoint x="510" y="2260" as="targetPoint" />
          </mxGeometry>
        </mxCell>
        <mxCell id="NGfU436XMh-44sgCnfu4-9" style="edgeStyle=orthogonalEdgeStyle;rounded=0;orthogonalLoop=1;jettySize=auto;html=1;exitX=0.5;exitY=1;exitDx=0;exitDy=0;strokeColor=#000000;" parent="1" source="NGfU436XMh-44sgCnfu4-1" target="NGfU436XMh-44sgCnfu4-2" edge="1">
          <mxGeometry relative="1" as="geometry" />
        </mxCell>
        <mxCell id="NGfU436XMh-44sgCnfu4-11" style="edgeStyle=orthogonalEdgeStyle;rounded=0;orthogonalLoop=1;jettySize=auto;html=1;exitX=1;exitY=0.5;exitDx=0;exitDy=0;strokeColor=#000000;entryX=0;entryY=0.5;entryDx=0;entryDy=0;" parent="1" source="NGfU436XMh-44sgCnfu4-1" target="NGfU436XMh-44sgCnfu4-13" edge="1">
          <mxGeometry relative="1" as="geometry">
            <mxPoint x="440" y="2870" as="targetPoint" />
          </mxGeometry>
        </mxCell>
        <mxCell id="NGfU436XMh-44sgCnfu4-1" value="Camera Gateway" style="rounded=0;whiteSpace=wrap;html=1;" parent="1" vertex="1">
          <mxGeometry x="120" y="2840" width="120" height="60" as="geometry" />
        </mxCell>
        <mxCell id="NGfU436XMh-44sgCnfu4-2" value="media_recording&lt;br&gt;&lt;br&gt;SDK-recording" style="rounded=0;whiteSpace=wrap;html=1;" parent="1" vertex="1">
          <mxGeometry x="120" y="2950" width="120" height="60" as="geometry" />
        </mxCell>
        <mxCell id="NGfU436XMh-44sgCnfu4-3" value="media_playback" style="rounded=0;whiteSpace=wrap;html=1;" parent="1" vertex="1">
          <mxGeometry x="305" y="3070" width="120" height="60" as="geometry" />
        </mxCell>
        <mxCell id="NGfU436XMh-44sgCnfu4-4" value="metadata" style="shape=cylinder3;whiteSpace=wrap;html=1;boundedLbl=1;backgroundOutline=1;size=15;gradientColor=#ffffff;" parent="1" vertex="1">
          <mxGeometry x="120" y="3060" width="60" height="80" as="geometry" />
        </mxCell>
        <mxCell id="NGfU436XMh-44sgCnfu4-5" value="media" style="shape=cylinder3;whiteSpace=wrap;html=1;boundedLbl=1;backgroundOutline=1;size=15;gradientColor=#ffffff;" parent="1" vertex="1">
          <mxGeometry x="180" y="3060" width="60" height="80" as="geometry" />
        </mxCell>
        <mxCell id="NGfU436XMh-44sgCnfu4-6" value="" style="shape=flexArrow;endArrow=classic;html=1;entryX=0.5;entryY=0;entryDx=0;entryDy=0;entryPerimeter=0;exitX=0.75;exitY=1;exitDx=0;exitDy=0;" parent="1" source="NGfU436XMh-44sgCnfu4-2" target="NGfU436XMh-44sgCnfu4-5" edge="1">
          <mxGeometry width="50" height="50" relative="1" as="geometry">
            <mxPoint x="160" y="3070" as="sourcePoint" />
            <mxPoint x="210" y="3020" as="targetPoint" />
          </mxGeometry>
        </mxCell>
        <mxCell id="NGfU436XMh-44sgCnfu4-7" value="" style="shape=flexArrow;endArrow=classic;html=1;entryX=0.5;entryY=0;entryDx=0;entryDy=0;entryPerimeter=0;exitX=0.75;exitY=1;exitDx=0;exitDy=0;" parent="1" edge="1">
          <mxGeometry width="50" height="50" relative="1" as="geometry">
            <mxPoint x="150" y="3010" as="sourcePoint" />
            <mxPoint x="150" y="3060" as="targetPoint" />
          </mxGeometry>
        </mxCell>
        <mxCell id="NGfU436XMh-44sgCnfu4-8" value="" style="shape=flexArrow;endArrow=classic;html=1;entryX=0;entryY=0.5;entryDx=0;entryDy=0;exitX=0.75;exitY=1;exitDx=0;exitDy=0;" parent="1" target="NGfU436XMh-44sgCnfu4-3" edge="1">
          <mxGeometry width="50" height="50" relative="1" as="geometry">
            <mxPoint x="240" y="3100" as="sourcePoint" />
            <mxPoint x="240" y="3150" as="targetPoint" />
          </mxGeometry>
        </mxCell>
        <mxCell id="NGfU436XMh-44sgCnfu4-10" value="UDP Multicast" style="text;html=1;align=center;verticalAlign=middle;resizable=0;points=[];autosize=1;strokeColor=none;" parent="1" vertex="1">
          <mxGeometry x="85" y="2920" width="90" height="20" as="geometry" />
        </mxCell>
        <mxCell id="NGfU436XMh-44sgCnfu4-12" value="API" style="rounded=0;whiteSpace=wrap;html=1;" parent="1" vertex="1">
          <mxGeometry x="440" y="2840" width="120" height="60" as="geometry" />
        </mxCell>
        <mxCell id="NGfU436XMh-44sgCnfu4-33" style="edgeStyle=orthogonalEdgeStyle;rounded=0;orthogonalLoop=1;jettySize=auto;html=1;exitX=1;exitY=0.5;exitDx=0;exitDy=0;entryX=0;entryY=0.5;entryDx=0;entryDy=0;strokeColor=#000000;" parent="1" source="NGfU436XMh-44sgCnfu4-13" target="NGfU436XMh-44sgCnfu4-29" edge="1">
          <mxGeometry relative="1" as="geometry" />
        </mxCell>
        <mxCell id="NGfU436XMh-44sgCnfu4-13" value="Transcoder" style="rounded=0;whiteSpace=wrap;html=1;" parent="1" vertex="1">
          <mxGeometry x="440" y="2750" width="120" height="60" as="geometry" />
        </mxCell>
        <mxCell id="NGfU436XMh-44sgCnfu4-14" value="Status Manager" style="rounded=0;whiteSpace=wrap;html=1;" parent="1" vertex="1">
          <mxGeometry x="438" y="2950" width="120" height="60" as="geometry" />
        </mxCell>
        <mxCell id="NGfU436XMh-44sgCnfu4-15" value="Media Server Manager" style="rounded=0;whiteSpace=wrap;html=1;" parent="1" vertex="1">
          <mxGeometry x="930" y="2840" width="120" height="60" as="geometry" />
        </mxCell>
        <mxCell id="NGfU436XMh-44sgCnfu4-16" value="Client" style="rounded=0;whiteSpace=wrap;html=1;" parent="1" vertex="1">
          <mxGeometry x="1090" y="2840" width="120" height="60" as="geometry" />
        </mxCell>
        <mxCell id="NGfU436XMh-44sgCnfu4-17" value="UDP Multicast" style="text;html=1;align=center;verticalAlign=middle;resizable=0;points=[];autosize=1;strokeColor=none;" parent="1" vertex="1">
          <mxGeometry x="250" y="2800" width="90" height="20" as="geometry" />
        </mxCell>
        <mxCell id="NGfU436XMh-44sgCnfu4-19" value="metadata" style="strokeWidth=2;html=1;shape=mxgraph.flowchart.database;whiteSpace=wrap;" parent="1" vertex="1">
          <mxGeometry x="960" y="3060" width="60" height="60" as="geometry" />
        </mxCell>
        <mxCell id="NGfU436XMh-44sgCnfu4-20" value="" style="endArrow=classic;startArrow=classic;html=1;strokeColor=#000000;exitX=0.5;exitY=0;exitDx=0;exitDy=0;exitPerimeter=0;entryX=0.5;entryY=1;entryDx=0;entryDy=0;" parent="1" source="NGfU436XMh-44sgCnfu4-19" target="NGfU436XMh-44sgCnfu4-15" edge="1">
          <mxGeometry width="50" height="50" relative="1" as="geometry">
            <mxPoint x="950" y="3020" as="sourcePoint" />
            <mxPoint x="1000" y="2970" as="targetPoint" />
          </mxGeometry>
        </mxCell>
        <mxCell id="NGfU436XMh-44sgCnfu4-21" value="" style="endArrow=classic;startArrow=classic;html=1;strokeColor=#000000;exitX=1;exitY=0.5;exitDx=0;exitDy=0;entryX=0;entryY=0.5;entryDx=0;entryDy=0;entryPerimeter=0;" parent="1" source="NGfU436XMh-44sgCnfu4-15" target="NGfU436XMh-44sgCnfu4-16" edge="1">
          <mxGeometry width="50" height="50" relative="1" as="geometry">
            <mxPoint x="1070" y="2920" as="sourcePoint" />
            <mxPoint x="1120" y="2870" as="targetPoint" />
          </mxGeometry>
        </mxCell>
        <mxCell id="NGfU436XMh-44sgCnfu4-22" value="" style="endArrow=classic;startArrow=classic;html=1;strokeColor=#000000;entryX=0.5;entryY=1;entryDx=0;entryDy=0;exitX=0.5;exitY=0;exitDx=0;exitDy=0;" parent="1" source="NGfU436XMh-44sgCnfu4-12" target="NGfU436XMh-44sgCnfu4-13" edge="1">
          <mxGeometry width="50" height="50" relative="1" as="geometry">
            <mxPoint x="470" y="2860" as="sourcePoint" />
            <mxPoint x="520" y="2810" as="targetPoint" />
          </mxGeometry>
        </mxCell>
        <mxCell id="NGfU436XMh-44sgCnfu4-25" value="" style="endArrow=none;dashed=1;html=1;dashPattern=1 3;strokeWidth=2;exitX=0;exitY=0.75;exitDx=0;exitDy=0;" parent="1" source="NGfU436XMh-44sgCnfu4-14" edge="1">
          <mxGeometry width="50" height="50" relative="1" as="geometry">
            <mxPoint x="400" y="2990" as="sourcePoint" />
            <mxPoint x="440" y="2800" as="targetPoint" />
            <Array as="points">
              <mxPoint x="400" y="2995" />
              <mxPoint x="400" y="2800" />
            </Array>
          </mxGeometry>
        </mxCell>
        <mxCell id="NGfU436XMh-44sgCnfu4-28" value="API" style="rounded=0;whiteSpace=wrap;html=1;" parent="1" vertex="1">
          <mxGeometry x="690" y="2840" width="120" height="60" as="geometry" />
        </mxCell>
        <mxCell id="NGfU436XMh-44sgCnfu4-39" style="edgeStyle=orthogonalEdgeStyle;rounded=0;orthogonalLoop=1;jettySize=auto;html=1;exitX=1;exitY=0.5;exitDx=0;exitDy=0;entryX=0.5;entryY=0;entryDx=0;entryDy=0;strokeColor=#000000;" parent="1" source="NGfU436XMh-44sgCnfu4-29" target="NGfU436XMh-44sgCnfu4-16" edge="1">
          <mxGeometry relative="1" as="geometry" />
        </mxCell>
        <mxCell id="NGfU436XMh-44sgCnfu4-29" value="Transcoder" style="rounded=0;whiteSpace=wrap;html=1;" parent="1" vertex="1">
          <mxGeometry x="690" y="2750" width="120" height="60" as="geometry" />
        </mxCell>
        <mxCell id="NGfU436XMh-44sgCnfu4-41" style="edgeStyle=orthogonalEdgeStyle;rounded=0;orthogonalLoop=1;jettySize=auto;html=1;exitX=1;exitY=0.5;exitDx=0;exitDy=0;entryX=0.25;entryY=1;entryDx=0;entryDy=0;strokeColor=#000000;" parent="1" source="NGfU436XMh-44sgCnfu4-30" target="NGfU436XMh-44sgCnfu4-15" edge="1">
          <mxGeometry relative="1" as="geometry" />
        </mxCell>
        <mxCell id="NGfU436XMh-44sgCnfu4-30" value="Status Manager" style="rounded=0;whiteSpace=wrap;html=1;" parent="1" vertex="1">
          <mxGeometry x="688" y="2950" width="120" height="60" as="geometry" />
        </mxCell>
        <mxCell id="NGfU436XMh-44sgCnfu4-31" value="" style="endArrow=classic;startArrow=classic;html=1;strokeColor=#000000;entryX=0.5;entryY=1;entryDx=0;entryDy=0;exitX=0.5;exitY=0;exitDx=0;exitDy=0;" parent="1" source="NGfU436XMh-44sgCnfu4-28" target="NGfU436XMh-44sgCnfu4-29" edge="1">
          <mxGeometry width="50" height="50" relative="1" as="geometry">
            <mxPoint x="720" y="2860" as="sourcePoint" />
            <mxPoint x="770" y="2810" as="targetPoint" />
          </mxGeometry>
        </mxCell>
        <mxCell id="NGfU436XMh-44sgCnfu4-32" value="" style="endArrow=none;dashed=1;html=1;dashPattern=1 3;strokeWidth=2;exitX=0;exitY=0.75;exitDx=0;exitDy=0;" parent="1" source="NGfU436XMh-44sgCnfu4-30" edge="1">
          <mxGeometry width="50" height="50" relative="1" as="geometry">
            <mxPoint x="650" y="2990" as="sourcePoint" />
            <mxPoint x="690" y="2800" as="targetPoint" />
            <Array as="points">
              <mxPoint x="650" y="2995" />
              <mxPoint x="650" y="2800" />
            </Array>
          </mxGeometry>
        </mxCell>
        <mxCell id="NGfU436XMh-44sgCnfu4-34" value="HLS/WS" style="text;html=1;align=center;verticalAlign=middle;resizable=0;points=[];autosize=1;strokeColor=none;" parent="1" vertex="1">
          <mxGeometry x="585" y="2760" width="60" height="20" as="geometry" />
        </mxCell>
        <mxCell id="NGfU436XMh-44sgCnfu4-36" value="" style="endArrow=classic;startArrow=classic;html=1;strokeColor=#000000;entryX=0;entryY=0.5;entryDx=0;entryDy=0;" parent="1" target="NGfU436XMh-44sgCnfu4-15" edge="1">
          <mxGeometry width="50" height="50" relative="1" as="geometry">
            <mxPoint x="810" y="2870" as="sourcePoint" />
            <mxPoint x="630" y="2890" as="targetPoint" />
          </mxGeometry>
        </mxCell>
        <mxCell id="NGfU436XMh-44sgCnfu4-37" value="" style="endArrow=classic;startArrow=classic;html=1;strokeColor=#000000;entryX=0;entryY=0.5;entryDx=0;entryDy=0;exitX=1;exitY=0.5;exitDx=0;exitDy=0;" parent="1" source="NGfU436XMh-44sgCnfu4-12" edge="1">
          <mxGeometry width="50" height="50" relative="1" as="geometry">
            <mxPoint x="570" y="2869.5" as="sourcePoint" />
            <mxPoint x="690" y="2869.5" as="targetPoint" />
          </mxGeometry>
        </mxCell>
        <mxCell id="NGfU436XMh-44sgCnfu4-40" value="HLS/WS" style="text;html=1;align=center;verticalAlign=middle;resizable=0;points=[];autosize=1;strokeColor=none;" parent="1" vertex="1">
          <mxGeometry x="950" y="2760" width="60" height="20" as="geometry" />
        </mxCell>
      </root>
    </mxGraphModel>
  </diagram>
</mxfile>
